<?xml version="1.0" encoding="utf-8"?>
<!-- Generator: Adobe Illustrator 26.0.1, SVG Export Plug-In . SVG Version: 6.00 Build 0)  -->
<svg version="1.1" id="Layer_1" xmlns="http://www.w3.org/2000/svg" xmlns:xlink="http://www.w3.org/1999/xlink" x="0px" y="0px"
	 viewBox="0 0 786 442" style="enable-background:new 0 0 786 442;" xml:space="preserve">
<style type="text/css">
	.st0{fill:none;stroke:#13284C;stroke-width:1.2;stroke-miterlimit:10;}
	.st1{fill:#FFFFFF;stroke:#0D274D;stroke-width:1.2;stroke-linecap:round;stroke-linejoin:round;}
	.st2{fill:#FFFFFF;stroke:#182749;stroke-width:1.2;stroke-miterlimit:10;}
	.st3{fill:#FFA500;stroke:#002853;stroke-width:1.2;stroke-miterlimit:10;}
	.st4{fill:#0050B2;stroke:#052750;stroke-width:1.2;stroke-linecap:round;stroke-linejoin:round;}
	.st5{fill:#58C033;stroke:#002853;stroke-width:1.2;stroke-miterlimit:10;}
	.st6{fill:none;stroke:#0D274D;stroke-width:1.2;stroke-linecap:round;stroke-linejoin:round;}
	.st7{fill:#182749;stroke:#182749;stroke-width:1.2;stroke-miterlimit:10;}
	.st8{fill:none;stroke:#10264D;stroke-width:1.2;stroke-linejoin:round;}
	.st9{clip-path:url(#SVGID_00000132066031770096911940000001332363384578270140_);}
	.st10{fill:#0D274D;stroke:#0D274D;stroke-width:1.2;stroke-linecap:round;stroke-linejoin:round;}
	.st11{fill:#A8B2C0;stroke:#0D274D;stroke-width:1.2;stroke-miterlimit:10;}
	.st12{fill:#0051AF;stroke:#0D274D;stroke-width:1.2;stroke-linecap:round;stroke-linejoin:round;}
	.st13{fill:#0D274D;}
	.st14{fill:#A8B2C0;stroke:#0D274D;stroke-width:1.2;stroke-linecap:round;stroke-miterlimit:10;}
	.st15{fill:#E2E2E2;stroke:#0D274D;stroke-width:1.2;stroke-linecap:round;stroke-linejoin:round;}
	.st16{fill:#FBAB2C;stroke:#10264D;stroke-width:1.2;stroke-linecap:round;stroke-linejoin:round;}
	.st17{fill:none;}
	.st18{fill:#FFFFFF;stroke:#10264D;stroke-width:1.2;stroke-linecap:round;stroke-linejoin:round;}
	.st19{fill:none;stroke:#10264D;stroke-width:1.2;stroke-linecap:round;stroke-linejoin:round;}
	.st20{fill:#74BF4B;stroke:#0D274D;stroke-width:1.2;stroke-linecap:round;stroke-linejoin:round;}
	.st21{fill:#E2E2E2;stroke:#10264D;stroke-width:1.2;stroke-linecap:round;stroke-linejoin:round;}
	.st22{fill:#E3241B;stroke:#10264D;stroke-width:1.2;stroke-linecap:round;stroke-linejoin:round;}
	.st23{fill:#0051AF;stroke:#10264D;stroke-width:1.2;stroke-linecap:round;stroke-linejoin:round;}
	.st24{fill:#74BF4B;stroke:#10264D;stroke-width:1.2;stroke-linecap:round;stroke-linejoin:round;}
	.st25{fill:#00BCEB;stroke:#10264D;stroke-width:1.2;stroke-linecap:round;stroke-linejoin:round;}
	.st26{fill:#E2E2E2;stroke:#042750;stroke-width:1.2;stroke-miterlimit:10;}
	.st27{fill:#F50001;stroke:#002853;stroke-width:1.2;stroke-miterlimit:10;}
	.st28{fill:#F3F4F5;stroke:#002853;stroke-width:1.2;stroke-miterlimit:10;}
	.st29{fill:#EFA53B;stroke:#13284C;stroke-width:1.2;stroke-linejoin:round;}
	.st30{clip-path:url(#SVGID_00000178925750999614995710000012501741298657633442_);}
	.st31{fill:#E2E2E2;}
	.st32{fill:#FFFFFF;}
	.st33{fill:#0051AF;stroke:#002753;stroke-width:1.2;stroke-linecap:round;stroke-linejoin:round;}
	.st34{fill:none;stroke:#002753;stroke-width:1.2;stroke-linecap:round;stroke-linejoin:round;}
	.st35{fill:#E2E2E2;stroke:#002753;stroke-width:1.2;stroke-linecap:round;stroke-linejoin:round;}
	.st36{fill:#042750;}
	.st37{clip-path:url(#SVGID_00000067943474964347633100000002367905821244941964_);}
	.st38{fill:#FBAB2C;}
	.st39{fill:none;stroke:#042750;stroke-width:1.2;stroke-linecap:round;stroke-linejoin:round;}
	.st40{fill:#002753;}
	.st41{fill:#FBAB2C;stroke:#042750;stroke-width:1.2;stroke-linecap:round;stroke-linejoin:round;}
	.st42{fill:#485D7C;}
	.st43{fill:#0C2750;stroke:#0C2750;stroke-width:1.2;stroke-linecap:round;stroke-linejoin:round;}
	.st44{fill:none;stroke:#0C2750;stroke-width:1.2;stroke-linecap:round;stroke-linejoin:round;}
	.st45{fill:#10264D;stroke:#10264D;stroke-width:1.2;stroke-linecap:round;stroke-linejoin:round;}
	.st46{fill:#DF3122;stroke:#10264D;stroke-width:1.2;stroke-miterlimit:10;}
	.st47{clip-path:url(#SVGID_00000114790895054197501940000011943427464858000259_);}
	.st48{fill:none;stroke:#0D274D;stroke-width:1.2;stroke-miterlimit:10;}
</style>
<g>
	<g id="Layer_1_00000183930889185861844750000005476848575564150443_">
		<g id="Layer_1-2">
			<line class="st0" x1="171" y1="393" x2="94.1" y2="268.1"/>
			<circle class="st1" cx="181.8" cy="411.7" r="22.8"/>
			<circle class="st2" cx="46.2" cy="116.3" r="22.1"/>
			<path class="st3" d="M680,97.9h-5.8c-0.6,0-1.1-0.2-1.6-0.4c-0.5-0.3-0.9-0.7-1.2-1.2s-0.4-1-0.4-1.6s0.2-1.1,0.5-1.6l2.8-4.7
				l3-5c0.3-0.5,0.7-0.9,1.2-1.1c0.5-0.3,1-0.4,1.6-0.4s1.1,0,1.6,0.4s0.9,0.7,1.2,1.1l3,5l2.8,4.7c0.3,0.5,0.5,1,0.5,1.6
				s0,1.1-0.4,1.6c-0.3,0.5-0.7,0.9-1.2,1.2s-1,0.4-1.6,0.4H680L680,97.9L680,97.9z"/>
			<path class="st4" d="M640,216c4.5,0,8-3.6,8-8s-3.6-8-8-8s-8,3.6-8,8S635.6,216,640,216z"/>
			<path class="st5" d="M351.1,174.1h-5.9c-0.6,0-1.1-0.2-1.6-0.4s-0.9-0.7-1.2-1.2c-0.3-0.5-0.4-1-0.4-1.6s0.2-1.1,0.5-1.6l2.8-4.7
				l3-5c0.3-0.5,0.7-0.9,1.2-1.1c0.5-0.3,1-0.4,1.6-0.4s1.1,0.1,1.6,0.4s0.9,0.7,1.2,1.1l3,5l2.8,4.7c0.3,0.5,0.5,1,0.5,1.6
				s-0.1,1.1-0.4,1.6s-0.7,0.9-1.2,1.2s-1,0.4-1.6,0.4H351.1z"/>
			<circle class="st6" cx="290" cy="287" r="86.3"/>
			<circle class="st7" cx="58" cy="116.1" r="2.2"/>
			<circle class="st7" cx="46" cy="124.2" r="2.2"/>
			<circle class="st7" cx="42" cy="108.1" r="2.2"/>
			<line class="st8" x1="47.8" y1="123.1" x2="56.1" y2="117.3"/>
			<line class="st8" x1="24.6" y1="120.5" x2="40.4" y2="109.6"/>
			<line class="st8" x1="42.6" y1="110.2" x2="45.2" y2="122.1"/>
			<g>
				<defs>
					<path id="SVGID_1_" d="M376.3,287c0,47.6-38.6,86.3-86.3,86.3s-86.3-38.6-86.3-86.3V158.6h172.6V287z"/>
				</defs>
				<clipPath id="SVGID_00000127757134018011234000000016168274852736223163_">
					<use xlink:href="#SVGID_1_"  style="overflow:visible;"/>
				</clipPath>
				<g style="clip-path:url(#SVGID_00000127757134018011234000000016168274852736223163_);">
					<g>
						<path class="st10" d="M336.7,184c5.8,1.8,10.4,7.5,10.2,13.6l0,0c-0.2,4.5-2.6,8.6-6.4,11l-4.3,2.6l-5.7-25l6.9-2"/>
						<path class="st10" d="M337.7,271.5c5-8.6,5.5-21.8,1.2-30.8l-9.9-1.4l-15.7,10l-0.5,19.3l24.8,2.8h0.1V271.5z"/>
						<path class="st11" d="M292.5,249.1l-3.3-13.7c-3.6-15.3,4.9-30.8,19.8-35.9l23.3-8c5.4,3.6,9,9.7,9.3,16.6l0.8,20.1
							c0.5,11.6-8.6,21.4-20.2,21.9l-1.5,9.6H286C286,259.8,292.5,249.1,292.5,249.1"/>
						<path class="st12" d="M227.8,380.1c-16.6,0-28.4-16.3-23.1-32.1l30.1-72.2c3.5-10.4,13-17.1,24.5-17.1l77.4-0.4
							c4.7,0,9.2,1.5,13.1,4.1c6.2,4.2,10.1,11,11.1,18.4l12.3,99.3L227.8,380.1L227.8,380.1L227.8,380.1z"/>
						<path class="st6" d="M229.4,345.6h39.7c4.6,0,11.3,0.3,15.9,0.6"/>
						<polyline class="st1" points="269.1,291.7 264.8,302.2 247,345.6 						"/>
						<path class="st6" d="M229.4,380.1l53.8-7.4l-1.3-3.6c-0.2-1.1-1.1-2-1-3.1l1.2-5.1"/>
						<path class="st11" d="M295.1,347.1l34.5,3.9c2.4,0.3,4.6,1.3,6.3,2.9l12.3,11.3c1.1,1,1.2,2.8,0.2,3.9l0,0
							c-0.9,1-2.3,1.2-3.5,0.5l-1.8-1.1"/>
						<path class="st11" d="M282,361.1l16,3.5c4.2,1,8.7,0.7,12.8-0.8l12-4.5l15.8,10.9c1,0.7,2.9,0.7,3.8,0c0,0,0.1-0.2,0.2-0.2
							c1-1.1,0.9-2.9-0.3-3.9l-14.6-12.7c-1.3-1.1-2.8-1.8-4.5-1.9l-14.5-2.5c-8-1.4-15.5-2.3-23.6-2.8l-3,15H282
							C282,361.1,282,361.1,282,361.1L282,361.1z"/>
						<polygon class="st13" points="266.2,298.9 255.6,345.6 247,345.6 						"/>
						<path class="st10" d="M283.1,372.6L283.1,372.6c0.7,0,1.4-0.5,1.7-1.1l0.6-1.5l2.3-7.7l-5.7-1.1l-1.1,4.8v2.1l0.4,3
							C281.4,372,282.2,372.7,283.1,372.6L283.1,372.6L283.1,372.6z"/>
						<path class="st10" d="M274.7,274.2c10.1,0.8,20.4-9.1,24.1-18.5c0.1-0.3,0.2-0.6,0.3-0.9c3.5-10.1-0.7-19.8-0.6-30.5l4.1-12.5
							c0,0,23.5-6.5,34-27.9l0,0c0,0-11.9-1.5-16.1-1.8l-18.3-1.4c-1.8-0.1-3.5,0-5.3,0.3c-8,1.6-14.3,7.9-18.3,14.8
							c-2.2,3.7-3.7,7.8-4.4,12c-0.9,4.8-1,9.8-3.4,14.2c-3.2,5.9-9.4,10.6-14.4,15.7c0,0-0.2,0.2-0.2,0.3
							C243.8,250.9,249,274.2,274.7,274.2"/>
						<path class="st14" d="M301,224.2c-4,0.2-7.3-3-7.3-7.1s2.9-6.7,6.5-6.9c1.8-0.1,3.6,0.5,4.9,1.5"/>
						<path class="st15" d="M336.2,374.9H278c-1.4,0-2.5,1.1-2.5,2.5l0,0c0,1.4,1.1,2.5,2.5,2.5h147.9v-3.8"/>
						<path class="st15" d="M438.1,380h-99.9c-1.2,0-2.1-1-1.9-2.2l10.1-75.6c0-0.6,0.6-1,1.2-1h102.3c0.6,0,1,0.5,0.9,1l-10.1,75.6
							C440.5,379,439.4,380,438.1,380z"/>
						<circle class="st16" cx="297.1" cy="228.1" r="7.8"/>
					</g>
				</g>
			</g>
			<path class="st6" d="M342,218.1c20.9,15.7,34.3,40.7,34.3,68.9c0,47.6-38.6,86.3-86.3,86.3s-86.3-38.6-86.3-86.3
				s38.6-86.3,86.3-86.3s4.6,0,6.9,0.3"/>
			<path class="st17" d="M597.5,142.7c0,48.1-39,87-87,87s-87-39-87-87V9.5h174.1v133.3l0,0L597.5,142.7z"/>
			<line class="st0" x1="260" y1="90.8" x2="423.7" y2="138.2"/>
			<line class="st0" x1="443" y1="198" x2="370.7" y2="256.5"/>
			<line class="st0" x1="373.5" y1="308.7" x2="520.5" y2="343.7"/>
			<line class="st6" x1="177.7" y1="422.1" x2="185.9" y2="422.1"/>
			<line class="st6" x1="178.9" y1="426" x2="184.7" y2="426"/>
			<line class="st0" x1="201.1" y1="399.4" x2="250.8" y2="363.9"/>
			<line class="st0" x1="103" y1="257.7" x2="203.4" y2="280.2"/>
			<line class="st0" x1="143.9" y1="87.8" x2="68.3" y2="112.6"/>
			<line class="st0" x1="207.9" y1="145.7" x2="235.5" y2="220.2"/>
			<line class="st6" x1="712.6" y1="290.2" x2="600" y2="364.9"/>
			
				<rect x="303.8" y="99.8" transform="matrix(0.8755 -0.4833 0.4833 0.8755 -12.2492 162.4044)" class="st18" width="10.3" height="10.3"/>
			<line class="st19" x1="599.2" y1="57.9" x2="573.5" y2="82.2"/>
			<circle class="st20" cx="100.2" cy="102.2" r="4.3"/>
			
				<rect x="218.7" y="179.9" transform="matrix(0.4321 -0.9018 0.9018 0.4321 -39.1621 304.1021)" class="st21" width="6.4" height="6.4"/>
			<circle class="st22" cx="408" cy="226" r="4"/>
			
				<rect x="397.8" y="126.7" transform="matrix(0.8678 -0.497 0.497 0.8678 -12.2182 217.6998)" class="st23" width="10.3" height="10.3"/>
			
				<rect x="662.6" y="317.6" transform="matrix(0.1754 -0.9845 0.9845 0.1754 233.1724 920.5233)" class="st16" width="6.9" height="6.9"/>
			<circle class="st24" cx="444" cy="326" r="4"/>
			<circle class="st25" cx="224" cy="382" r="4"/>
			<ellipse class="st1" cx="86" cy="252.2" rx="17.8" ry="18"/>
			<path class="st25" d="M92.2,260.5l-6.2,2.3l-6.2-2.3c-1.6-0.6-2.7-2.1-2.7-3.7V243H95v13.8c0,1.6-1.1,3.1-2.7,3.7H92.2
				L92.2,260.5z"/>
			<circle class="st1" cx="612" cy="42" r="20"/>
			<line class="st6" x1="610.1" y1="44.8" x2="600" y2="49.9"/>
			<line class="st6" x1="613.5" y1="44.8" x2="623.7" y2="49.9"/>
			<polygon class="st1" points="611.8,32.4 600,38.7 604.9,41.7 605.1,41.8 610.1,44.8 611.8,45.9 613.5,44.8 614.2,44.4 615,43.9 
				616.5,43.1 622.3,39.5 623.7,38.7 			"/>
			<polyline class="st1" points="600,38.7 600,49.9 623.7,49.9 623.7,38.7 			"/>
			<circle class="st2" cx="729" cy="279" r="20"/>
			<g>
				<path class="st26" d="M738.1,267.7c0.4,0.3,0.4,0.9,0,1.3c-0.9,1.3-1,3-0.2,4.5s2.3,2.3,3.8,2c0.5,0,0.9,0.3,1,0.8
					c0.3,1.7,0.3,3.5,0,5.4c0,0.4-0.5,0.8-1,0.8c-1.5-0.1-3,0.6-3.8,2c-0.8,1.5-0.6,3.2,0.2,4.5c0.3,0.4,0.2,1,0,1.3
					c-1.3,1.2-2.9,2.1-4.4,2.7c-0.4,0.2-0.9,0-1.1-0.5c-0.6-1.4-2-2.5-3.6-2.5s-3,1-3.6,2.5c-0.2,0.4-0.7,0.6-1.1,0.5
					c-0.8-0.3-1.5-0.6-2.3-1.1c-0.7-0.4-1.4-1-2-1.5c-0.4-0.3-0.4-0.9,0-1.3c0.9-1.3,1-3,0.2-4.5s-2.3-2.3-3.8-2
					c-0.5,0-0.9-0.3-1-0.8c-0.3-1.7-0.3-3.5,0-5.4c0-0.4,0.5-0.8,1-0.8c1.5,0.1,3-0.6,3.8-2c0.8-1.5,0.6-3.2-0.2-4.5
					c-0.3-0.4-0.2-1,0-1.3c1.3-1.2,2.9-2.1,4.4-2.7c0.4-0.2,0.9,0,1.1,0.5c0.6,1.4,2,2.5,3.6,2.5s3-1,3.6-2.5
					c0.2-0.4,0.7-0.6,1.1-0.5c0.8,0.3,1.5,0.6,2.3,1.1C736.8,266.6,737.5,267.2,738.1,267.7z"/>
				<circle class="st1" cx="729" cy="279" r="4"/>
			</g>
			<path class="st27" d="M76,408.1c4.4,0,8-3.6,8-8s-3.6-8-8-8s-8,3.6-8,8S71.6,408.1,76,408.1z"/>
			<line class="st6" x1="610.1" y1="44.8" x2="600" y2="49.9"/>
			<line class="st6" x1="613.5" y1="44.8" x2="623.7" y2="49.9"/>
			<polyline class="st6" points="600,38.7 604.9,41.7 605.1,41.8 610.1,44.8 611.8,45.9 613.5,44.8 614.2,44.4 615,43.9 616.5,43.1 
				622.3,39.5 623.7,38.7 			"/>
			<polygon class="st15" points="619.9,41 611.8,45.9 603.9,41.1 603.9,30.1 619.9,30.1 			"/>
			<line class="st6" x1="607.9" y1="34.3" x2="616.1" y2="34.3"/>
			<line class="st6" x1="607.9" y1="38.1" x2="616.1" y2="38.1"/>
			<path class="st28" d="M129,181.1h8c2.2,0,4,1.8,4,4v8c0,2.2-1.8,4-4,4h-8c-2.2,0-4-1.8-4-4v-8C125,182.9,126.8,181.1,129,181.1z"
				/>
			<path class="st21" d="M403.3,38h8c2.2,0,4,1.8,4,4v8c0,2.2-1.8,4-4,4h-8c-2.2,0-4-1.8-4-4v-8C399.3,39.8,401.1,38,403.3,38z"/>
			<path class="st6" d="M554.2,402.8h-53.3c-6.5,0-10.6-7.1-7.3-12.7l26.6-46.2l26.6-46.2c3.3-5.6,11.4-5.6,14.7,0l26.6,46.2
				l26.6,46.2c3.3,5.6-0.8,12.7-7.3,12.7h-53.3H554.2L554.2,402.8z"/>
			<path class="st6" d="M578.2,326.6l10,17.3l26.6,46.2c3.3,5.6-0.8,12.7-7.3,12.7H500.9c-6.5,0-10.6-7.1-7.3-12.7l7.5-13.1"/>
			<path class="st29" d="M177.7,418c0-3.3-2.9-6.2-2.9-6.2c-3.8-3.8-3.8-10.1,0-13.9c1.9-1.9,4.4-2.9,7-2.9s5,1,7,2.9
				c3.8,3.8,3.8,10.1,0,13.9c0,0-2.9,2.9-2.9,6.2H177.7L177.7,418z"/>
			<g>
				<defs>
					<rect id="SVGID_00000081638190557358067350000007237376997787813271_" x="488.2" y="281.1" width="132.4" height="121.3"/>
				</defs>
				<clipPath id="SVGID_00000121962808313782739770000003448241393676966316_">
					<use xlink:href="#SVGID_00000081638190557358067350000007237376997787813271_"  style="overflow:visible;"/>
				</clipPath>
				<g style="clip-path:url(#SVGID_00000121962808313782739770000003448241393676966316_);">
					<g>
						
							<rect x="522" y="297.8" transform="matrix(0.8211 -0.5707 0.5707 0.8211 -80.1971 353.0331)" class="st13" width="2.3" height="13.4"/>
						<g>
							<line class="st6" x1="502.8" y1="374" x2="604.8" y2="374"/>
							<g>
								<polygon class="st31" points="557.5,306.8 541.3,329.7 571.1,359.9 569.3,335.1 								"/>
								<polyline class="st32" points="550.2,368.9 570.8,450.5 580.5,449.6 569.8,368.9 								"/>
								<polyline class="st33" points="550.2,368.9 570.8,450.5 580.5,449.6 569.8,368.9 								"/>
								<polyline class="st32" points="560,378.7 536.8,449.1 527.1,446.9 540.4,368.9 								"/>
								<polyline class="st33" points="560,378.7 536.8,449.1 527.1,446.9 540.4,368.9 								"/>
								<path class="st32" d="M530.6,314.3c-1.2-1.8-2.5-3.5-4.1-5.1c-1.1-1.1-2.4-2.2-3.9-2.6c-0.5-0.2-1.1-0.3-1.7-0.1
									s-1.1,0.5-1.2,1.1c0,0.5,0,1.1,0.2,1.6c1.2,3.2,3.5,6.9,6.6,10.8"/>
								<path class="st34" d="M530.6,314.3c-1.2-1.8-2.5-3.5-4.1-5.1c-1.1-1.1-2.4-2.2-3.9-2.6c-0.5-0.2-1.1-0.3-1.7-0.1
									s-1.1,0.5-1.2,1.1c0,0.5,0,1.1,0.2,1.6c1.2,3.2,3.5,6.9,6.6,10.8"/>
								<path class="st31" d="M570,346.9l2,7.2c1.6,5.8,2.9,11.6,3.9,17.5l3.2,16.9h-48.5l19.6-58.8"/>
								<path class="st34" d="M570,346.9l2,7.2c1.6,5.8,2.9,11.6,3.9,17.5l3.2,16.9h-48.5l19.6-58.8"/>
								<path class="st32" d="M555.5,308.9c1.7-2.4,4.5-4,7.7-4c5,0,9.1,3.9,9.4,9l-2.5,33.1"/>
								<path class="st35" d="M555.5,308.9c1.7-2.4,4.5-4,7.7-4c5,0,9.1,3.9,9.4,9l-2.5,33.1"/>
								<path class="st32" d="M544.3,325.7l-12.7-15l-8.8,6.9l16.5,23.3l0,0c1.3,1.7,3.4,2.8,5.7,2.7c2.2-0.1,4.1-1.3,5.2-3l0,0
									l9.5-14.3 M555.5,308.9l-11.1,16.8"/>
								<path class="st35" d="M544.3,325.7l-12.7-15l-8.8,6.9l16.5,23.3l0,0c1.3,1.7,3.4,2.8,5.7,2.7c2.2-0.1,4.1-1.3,5.2-3l0,0
									l9.5-14.3 M555.5,308.9l-11.1,16.8"/>
								<path class="st32" d="M564.1,298.5c-1.2,3.4-2.3,8.6-2.4,12.2v1.6c0.4,2.8,2.5,5.1,5.2,5.9l1.7,0.5
									c5.8,1.6,11.2-4.2,8.7-9.7l0,0c-1-2.3-2.4-4.5-2.8-6.8c-0.2-1.7,0.3-3.3,0.6-4.9c0.2-1.4,0.2-2.9,0-4.3
									c-0.5-2.6-1.7-5.4-4.1-6.8c-0.5-0.3-1.1-0.6-1.6-0.7l-6-1.7c-3.5-1-7,1-8,4.5l-1.7,6c-1,3.5,1,7,4.5,8l4.4,0.9"/>
								<path class="st34" d="M564.1,298.5c-1.2,3.4-2.3,8.6-2.4,12.2v1.6c0.4,2.8,2.5,5.1,5.2,5.9l1.7,0.5
									c5.8,1.6,11.2-4.2,8.7-9.7l0,0c-1-2.3-2.4-4.5-2.8-6.8c-0.2-1.7,0.3-3.3,0.6-4.9c0.2-1.4,0.2-2.9,0-4.3
									c-0.5-2.6-1.7-5.4-4.1-6.8c-0.5-0.3-1.1-0.6-1.6-0.7l-6-1.7c-3.5-1-7,1-8,4.5l-1.7,6c-1,3.5,1,7,4.5,8l4.4,0.9"/>
								<path class="st32" d="M557.5,286.2c0.5,3.7,3.9,11.6,5.6,13.3"/>
								<path class="st34" d="M557.5,286.2c0.5,3.7,3.9,11.6,5.6,13.3"/>
								<path class="st36" d="M572.6,388.5c-6,6.1-15.3,10.3-15.3,10.3l-1.5-6.3l1.4-4H572.6L572.6,388.5L572.6,388.5z"/>
							</g>
						</g>
					</g>
				</g>
			</g>
			<g>
				<defs>
					<rect id="SVGID_00000020371431689543664880000017672978482076380606_" x="140.7" y="23.7" width="121.9" height="122.4"/>
				</defs>
				<clipPath id="SVGID_00000091728495490265441100000012422024032231735742_">
					<use xlink:href="#SVGID_00000020371431689543664880000017672978482076380606_"  style="overflow:visible;"/>
				</clipPath>
				<g style="clip-path:url(#SVGID_00000091728495490265441100000012422024032231735742_);">
					<g>
						<line class="st6" x1="144" y1="118" x2="260" y2="118"/>
						<g>
							<path class="st38" d="M205.5,74.5c-0.6-1.6-1.6-3-3.1-4c-0.3-0.6-0.7-1.2-1.1-1.7c-0.9-3.4-3.7-6.2-8.2-6.2
								c-8.6,0-10.8,9.9-6.5,15c0.5,2,1.7,3.7,3.4,4.9c0.5,0.9,1.1,1.8,1.9,2.5c1.1,3.1,3.8,5.5,8,5.5c9.1,0,11-11.3,5.6-15.9l0,0
								C205.5,74.6,205.5,74.6,205.5,74.5L205.5,74.5z"/>
							<path class="st39" d="M253.8,210l-24.6,7.5l0.5,1.6c0.6,2,2.8,3.1,4.8,2.5l17.6-5.5c2-0.6,3.1-2.8,2.5-4.8
								c-0.2-0.5-0.4-0.9-0.7-1.3H253.8z"/>
							<path class="st40" d="M235.8,204.3l-10,2.3l3.4,10.9l24.6-7.5c-0.4-0.5-2.6-1-4.4-1.3c-2.2-0.4-4.4-1-6.5-1.8L235.8,204.3
								L235.8,204.3L235.8,204.3z"/>
							<path class="st34" d="M235.8,204.3l-10,2.3l3.4,10.9l24.6-7.5c-0.4-0.5-2.6-1-4.4-1.3c-2.2-0.4-4.4-1-6.5-1.8L235.8,204.3"/>
							<path class="st39" d="M195.9,218.4l-27.6-0.3l-0.4,1.7c-0.5,2.1,0.8,3.8,2.9,3.8h20.4c2.1,0,4.2-1.6,4.7-3.7
								C196,219.4,196,218.9,195.9,218.4L195.9,218.4L195.9,218.4z"/>
							<path class="st40" d="M181,207.5l-10-0.9l-2.6,11.4l27.6,0.3c-0.1-0.6-1.8-1.7-3.3-2.6c-0.4-0.2-0.9-0.5-1.5-0.8
								C187.5,212.9,184.1,210.4,181,207.5"/>
							<path class="st34" d="M181,207.5l-10-0.9l-2.6,11.4l27.6,0.3c-0.1-0.6-1.8-1.7-3.3-2.6c-0.4-0.2-0.9-0.5-1.5-0.8
								C187.5,212.9,184.1,210.4,181,207.5"/>
							
								<rect x="222.2" y="51.4" transform="matrix(0.5707 -0.8211 0.8211 0.5707 55.1235 210.5014)" class="st13" width="13.4" height="2.3"/>
							<polygon class="st32" points="182.2,208.8 166.4,208.8 181.8,100.3 206.1,100.3 							"/>
							<polygon class="st39" points="182.2,208.8 166.4,208.8 181.8,100.3 206.1,100.3 							"/>
							<polyline class="st32" points="183,100.3 206,100.3 235.8,204.4 221.7,208.8 186.9,119.8 							"/>
							<polyline class="st39" points="183,100.3 206,100.3 235.8,204.4 221.7,208.8 186.9,119.8 							"/>
							<path class="st32" d="M205.3,96.3l0.9,4h-22.8c-2.8,0-5-2.3-4.9-5.1l0.9-29.2c0.2-5.2,4.5-9.3,9.7-9.3s6.2,1.6,7.9,4.1"/>
							<path class="st41" d="M205.3,96.3l0.9,4h-22.8c-2.8,0-5-2.3-4.9-5.1l0.9-29.2c0.2-5.2,4.5-9.3,9.7-9.3s6.2,1.6,7.9,4.1"/>
							<path class="st41" d="M208.4,78.4L196.9,61 M192.5,79l9.8,14.8c1.2,1.8,3.1,3,5.4,3.1c2.4,0,4.6-1,5.9-2.9l0,0l14-27
								l-6.1-4.2l-13.1,15.5"/>
							<path class="st42" d="M232.6,57.5l-4.9,9.5l-6.1-4.2c1.2-1.9,2.6-3.7,4.2-5.2c1.2-1.2,2.5-2.3,4-2.7c0.6-0.2,1.2-0.3,1.7,0
								c0.6,0,1.1,0.5,1.3,1.1s0,1.1-0.3,1.7"/>
							<path class="st39" d="M232.6,57.5l-4.9,9.5l-6.1-4.2c1.2-1.9,2.6-3.7,4.2-5.2c1.2-1.2,2.5-2.3,4-2.7c0.6-0.2,1.2-0.3,1.7,0
								c0.6,0,1.1,0.5,1.3,1.1s0,1.1-0.3,1.7h0.1C232.6,57.7,232.6,57.5,232.6,57.5z"/>
							<polygon class="st36" points="186.7,120.6 194.1,154.6 196.4,144.2 							"/>
							<path class="st32" d="M198.4,38.9c-0.6,2.4-2.4,4.9-4.1,6.6c-1.7,1.7-3.6,3.1-5.8,4.2l-7.5,4.2c-1.2-1.4-1.9-3.2-1.7-5.2
								l0.3-3.8c0.3-2.8,1.8-5.5,4.2-6.9c0.8-0.5,1.6-0.8,2.4-1c0.6,0,1.2-0.2,1.8,0l6.4,0.5c1.4,0,2.8,0.7,3.8,1.6"/>
							<path class="st43" d="M198.4,38.9c-0.6,2.4-2.4,4.9-4.1,6.6c-1.7,1.7-3.6,3.1-5.8,4.2l-7.5,4.2c-1.2-1.4-1.9-3.2-1.7-5.2
								l0.3-3.8c0.3-2.8,1.8-5.5,4.2-6.9c0.8-0.5,1.6-0.8,2.4-1c0.6,0,1.2-0.2,1.8,0l6.4,0.5c1.4,0,2.8,0.7,3.8,1.6h0.2L198.4,38.9
								L198.4,38.9L198.4,38.9z"/>
							<path class="st42" d="M200.8,44.6l-0.5,6.4c-0.3,3.7-3.5,6.5-7.2,6.2l-4.6-0.7l-2.9-0.3c-1.8-0.2-3.3-1-4.4-2.3l7.5-4.2
								c2.1-1.1,4.1-2.5,5.8-4.2c1.6-1.6,3.4-4.2,4.1-6.6c1.6,1.3,2.6,3.4,2.4,5.7"/>
							<path class="st44" d="M200.8,44.6l-0.5,6.4c-0.3,3.7-3.5,6.5-7.2,6.2l-4.6-0.7l-2.9-0.3c-1.8-0.2-3.3-1-4.4-2.3l7.5-4.2
								c2.1-1.1,4.1-2.5,5.8-4.2c1.6-1.6,3.4-4.2,4.1-6.6c1.6,1.3,2.6,3.4,2.4,5.7L200.8,44.6L200.8,44.6z"/>
							<line class="st6" x1="198.4" y1="38.9" x2="198.4" y2="38.9"/>
						</g>
					</g>
				</g>
			</g>
			<path class="st6" d="M148.2,26.7H256c2.4,0,4.3,2.9,4.3,5.3v109.8c0,2.4-1.9,4.3-4.3,4.3H148.2c-2.4,0-4.3-1.9-4.3-4.3V32
				C143.9,29.6,145.8,26.7,148.2,26.7L148.2,26.7L148.2,26.7z"/>
			<path class="st15" d="M623.3,387.2v-3.7c0-1.3-1.2-2.5-2.8-2.5h-17.7c-1.5,0-2.8,1.1-2.8,2.5v32c0,1.3,1.2,2.5,2.8,2.5h42.4
				c1.5,0,2.8-1.1,2.8-2.5v-25.8c0-1.3-1.2-2.5-2.8-2.5H623.3z"/>
			<path class="st5" d="M645,418h-42.3c-1.5,0-2.8-1.1-2.8-2.5v-22.2c0-1.3,1.2-2.5,2.8-2.5h42.2c1.5,0,2.8,1.1,2.8,2.6l0,0v21.9
				c0,1.4-1.2,2.6-2.8,2.6l0,0L645,418z"/>
			<path class="st18" d="M254.2,2.2h67.7c3.4,0,6.2,2.7,6.2,6.1V52c0,3.3-2.8,6.1-6.2,6.1h-67.7c-3.4,0-6.2-2.7-6.2-6.1V8.3
				C248,5,250.8,2.2,254.2,2.2C254.2,2.2,254.2,2.2,254.2,2.2z"/>
			<path class="st45" d="M248,14.6V8.3c0-3.4,2.8-6.1,6.2-6.1h67.7c3.5,0,6.2,2.7,6.2,6.1l0,0v6.3H248L248,14.6L248,14.6L248,14.6z"
				/>
			<circle class="st46" cx="254.5" cy="8.4" r="2.5"/>
			<g>
				<path class="st25" d="M288,19L288,19c8.8,0,16,7.2,16,16l0,0c0,8.8-7.2,16-16,16l0,0c-8.8,0-16-7.2-16-16l0,0
					C272,26.2,279.2,19,288,19z"/>
				<polyline class="st19" points="296.8,29.6 284.9,41.6 279.3,35.9 				"/>
			</g>
			<g>
				<g>
					<defs>
						<circle id="SVGID_00000128473953143248787760000014412661672164448702_" cx="510.5" cy="142.7" r="87"/>
					</defs>
					<clipPath id="SVGID_00000091725290034404870460000017152974513599446656_">
						<use xlink:href="#SVGID_00000128473953143248787760000014412661672164448702_"  style="overflow:visible;"/>
					</clipPath>
					<g style="clip-path:url(#SVGID_00000091725290034404870460000017152974513599446656_);">
						<g>
							<path class="st10" d="M470.8,120.6v-2.9c0-13.8,11.2-25.1,25.1-25.1h38.8c13.8,0,25.1,11.2,25.1,25.1v2.9"/>
							<path class="st25" d="M538.4,116.7h11.8c14.1,0,26.8,8.6,32.3,21.6l28.1,67c5.3,15.6-6.4,31.8-22.9,31.8H429l14.5-91.1
								c2.7-17.1,17.5-29.6,34.7-29.6l0,0L538.4,116.7L538.4,116.7L538.4,116.7z"/>
							<path class="st32" d="M529.6,202.2c-12.6,0.8-9.2,0.5-22.2,2.7l-14.4,2.5c-1.6,0.1-3.2,0.8-4.5,1.9L474,221.9
								c-1.2,1-1.3,2.7-0.3,3.9c0,0,0,0.2,0.2,0.2c0.9,0.7,2.7,0.7,3.7,0l15.7-10.8l11.9,4.4c4,1.5,8.4,1.8,12.6,0.8l13.6-3.1"/>
							<path class="st25" d="M539.2,151.9c5,35.1,13.4,44,13.4,44"/>
							<path class="st6" d="M459.4,141.2c-1.1,1.4-7.6,15.6-9.5,32.7"/>
							<path class="st6" d="M478.2,121.8v2.6c0,11.4,3.4,22.5,9.7,32l0.3,0.5"/>
							<path class="st6" d="M533.4,126.8l-2.8,3.7c-8.1,10.8-13.6,23.2-16.3,36.4l-1,5"/>
							<path class="st13" d="M539.4,155.1l6,43.6l8-2.7c-7.9-7-14-40.8-14-40.8l0,0V155.1z"/>
							<path class="st1" d="M516.7,203.5l-30.1,3.4c-2.3,0.3-4.6,1.3-6.3,2.9L468.1,221c-1.1,1-1.2,2.8-0.2,3.9l0,0
								c0.9,1,2.3,1.2,3.4,0.5l1.8-1.1"/>
							<path class="st1" d="M538.1,201.4c-7.6,0.5-23.1,2.2-30.6,3.5l-14.4,2.5c-1.6,0.1-3.2,0.8-4.5,1.9l-14.5,12.6
								c-1.2,1-1.3,2.7-0.3,3.9c0,0,0,0.2,0.2,0.2c0.9,0.7,2.7,0.7,3.7,0l15.7-10.8l15,6.5c4,1.5,8.4,1.8,12.6,0.8l13.6-3.1"/>
							<path class="st25" d="M588.2,237.1l-53.8-5.7c-3.4-0.4-6.1-2.9-6.6-6.2l-3.2-19.2c-0.7-4.1,2.1-8,6.2-8.7
								c12.4-2.1,38.2-5.9,58.5-5.9"/>
							<path class="st15" d="M478.6,232.1h58.1c1.4,0,2.5,1.1,2.5,2.5l0,0c0,1.4-1.1,2.5-2.5,2.5H389"/>
							<g>
								<path class="st15" d="M376.8,237.1h99.8c1.2,0,2.1-1,1.9-2.2l-10.1-75.5c0-0.6-0.6-1-1.2-1H365c-0.6,0-1,0.5-0.9,1
									l10.1,75.5C374.4,236.1,375.5,237.1,376.8,237.1L376.8,237.1L376.8,237.1z"/>
								<path class="st15" d="M372.3,237.1h99.8c1.2,0,2.1-1,1.9-2.2l-10.1-75.5c0-0.6-0.6-1-1.2-1H360.5c-0.6,0-1,0.5-0.9,1
									l10.1,75.5C369.9,236.1,371,237.1,372.3,237.1L372.3,237.1L372.3,237.1z"/>
							</g>
						</g>
					</g>
				</g>
				<circle class="st48" cx="510.5" cy="142.7" r="87"/>
			</g>
			<g>
				<path class="st1" d="M528.8,102.7l4.2-15c4.4-15.8-4.5-32.3-20.1-37.3l-27.1-8.7c-5.6,3.3-6.7,11.7-7.4,18.7l-2.8,17.7
					c-1.2,11.6,3.9,24.3,15.5,25.5l-4.5,13.7h0.2c13.8,6.1,29.5,6.3,43.4,0.5h0.2l-1.5-15.1"/>
				<path class="st1" d="M480.2,49.8c0,0,7.6,2,12,2.4c9.8,0.8,16.7-0.7,20.5-1l-0.8,25.5l6.1-3.6l6.9,10.2
					c-7.4,8.2,4.4,19.6,4.4,19.6s4-14.8,7.6-21.8c3.1-6,7.3-16,4-26.3c-3.8-11.9-10.8-15-16.9-16.6c-7.4-1.9-26.4-2.6-34.3,0.6
					C481.9,42,480.2,49.9,480.2,49.8L480.2,49.8L480.2,49.8z"/>
				<path class="st1" d="M517,73.7c1.9-1.3,4.6-2.2,6.9-1.8c2.7,0.5,4.6,3.2,4.9,5.9c0.5,4.6-3.4,8.2-7.7,7.7"/>
			</g>
		</g>
	</g>
</g>
</svg>
